<?xml version="1.0" encoding="utf-8"?>
<!-- Generator: Adobe Illustrator 22.0.0, SVG Export Plug-In . SVG Version: 6.00 Build 0)  -->
<svg version="1.1" id="Layer_1" xmlns="http://www.w3.org/2000/svg" xmlns:xlink="http://www.w3.org/1999/xlink" x="0px" y="0px"
	 viewBox="0 0 1366 768" style="enable-background:new 0 0 1366 768;" xml:space="preserve">
<style type="text/css">
	.st0{fill-rule:evenodd;clip-rule:evenodd;fill:url(#SVGID_1_);}
	.st1{fill-rule:evenodd;clip-rule:evenodd;fill:url(#SVGID_2_);}
	.st2{fill-rule:evenodd;clip-rule:evenodd;fill:url(#SVGID_3_);}
	.st3{fill-rule:evenodd;clip-rule:evenodd;fill:url(#SVGID_4_);}
	.st4{fill-rule:evenodd;clip-rule:evenodd;fill:url(#SVGID_5_);}
	.st5{fill-rule:evenodd;clip-rule:evenodd;fill:url(#SVGID_6_);}
	.st6{fill-rule:evenodd;clip-rule:evenodd;fill:url(#SVGID_7_);}
	.st7{fill-rule:evenodd;clip-rule:evenodd;fill:#FFFFFF;}
</style>
<radialGradient id="SVGID_1_" cx="455.5882" cy="221.7647" r="247.8389" gradientUnits="userSpaceOnUse">
	<stop  offset="0" style="stop-color:#FFFFFF"/>
	<stop  offset="0.1593" style="stop-color:#C2C2C2"/>
	<stop  offset="0.3171" style="stop-color:#8D8D8D"/>
	<stop  offset="0.47" style="stop-color:#626262"/>
	<stop  offset="0.6172" style="stop-color:#404040"/>
	<stop  offset="0.7568" style="stop-color:#282828"/>
	<stop  offset="0.8861" style="stop-color:#1A1A1A"/>
	<stop  offset="0.9948" style="stop-color:#151515"/>
</radialGradient>
<circle class="st0" cx="622" cy="349" r="234"/>
<g>
	<linearGradient id="SVGID_2_" gradientUnits="userSpaceOnUse" x1="478" y1="254.613" x2="770.694" y2="254.613">
		<stop  offset="0" style="stop-color:#FFFFFF"/>
		<stop  offset="1" style="stop-color:#000000"/>
	</linearGradient>
	<polygon class="st1" points="478,262.2 770.7,262.2 770.7,247 478,247 	"/>
	<linearGradient id="SVGID_3_" gradientUnits="userSpaceOnUse" x1="502.1777" y1="426.9883" x2="788.8557" y2="426.9883">
		<stop  offset="0" style="stop-color:#FFFFFF"/>
		<stop  offset="1" style="stop-color:#000000"/>
	</linearGradient>
	<polygon class="st2" points="502.2,434.6 788.9,434.6 788.9,419.4 502.2,419.4 	"/>
	<linearGradient id="SVGID_4_" gradientUnits="userSpaceOnUse" x1="502.1777" y1="340.6951" x2="770.8951" y2="340.6951">
		<stop  offset="0" style="stop-color:#FFFFFF"/>
		<stop  offset="1" style="stop-color:#000000"/>
	</linearGradient>
	<polygon class="st3" points="532.6,419.4 770.9,262.2 741.7,262 502.2,419.4 	"/>
</g>
<linearGradient id="SVGID_5_" gradientUnits="userSpaceOnUse" x1="478" y1="455.6561" x2="770.694" y2="455.6561">
	<stop  offset="0" style="stop-color:#00A99D"/>
	<stop  offset="1" style="stop-color:#000000"/>
</linearGradient>
<polygon class="st4" points="478,463.3 770.7,463.3 770.7,448 478,448 "/>
<linearGradient id="SVGID_6_" gradientUnits="userSpaceOnUse" x1="496.3059" y1="283.6493" x2="789" y2="283.6493">
	<stop  offset="0" style="stop-color:#00A99D"/>
	<stop  offset="1" style="stop-color:#000000"/>
</linearGradient>
<polygon class="st5" points="496.3,291.3 789,291.3 789,276 496.3,276 "/>
<linearGradient id="SVGID_7_" gradientUnits="userSpaceOnUse" x1="496.3059" y1="369.6153" x2="770.5497" y2="369.6153">
	<stop  offset="0" style="stop-color:#00A99D"/>
	<stop  offset="1" style="stop-color:#000000"/>
</linearGradient>
<polygon class="st6" points="525.3,291.2 770.5,448 738.4,448 496.3,291.2 "/>
<polygon class="st7" points="615.2,351.9 609.9,351.9 607.2,356.5 609.9,361.1 615.2,361.1 617.9,356.5 "/>
</svg>
