<?xml version="1.0" encoding="utf-8"?>
<!-- Generator: Adobe Illustrator 22.0.0, SVG Export Plug-In . SVG Version: 6.00 Build 0)  -->
<svg version="1.1" id="Layer_1" xmlns="http://www.w3.org/2000/svg" xmlns:xlink="http://www.w3.org/1999/xlink" x="0px" y="0px"
	 viewBox="0 0 1366 768" style="enable-background:new 0 0 1366 768;" xml:space="preserve">
<style type="text/css">
	.st0{fill-rule:evenodd;clip-rule:evenodd;fill:url(#SVGID_1_);}
	.st1{fill-rule:evenodd;clip-rule:evenodd;fill:url(#SVGID_2_);}
	.st2{fill-rule:evenodd;clip-rule:evenodd;fill:url(#SVGID_3_);}
	.st3{fill-rule:evenodd;clip-rule:evenodd;fill:url(#SVGID_4_);}
	.st4{fill-rule:evenodd;clip-rule:evenodd;fill:url(#SVGID_5_);}
	.st5{fill-rule:evenodd;clip-rule:evenodd;fill:url(#SVGID_6_);}
	.st6{fill-rule:evenodd;clip-rule:evenodd;fill:url(#SVGID_7_);}
	.st7{fill-rule:evenodd;clip-rule:evenodd;fill:#FFFFFF;}
</style>
<radialGradient id="SVGID_1_" cx="455.5882" cy="221.7647" r="247.8389" gradientUnits="userSpaceOnUse">
	<stop  offset="0" style="stop-color:#FFFFFF"/>
	<stop  offset="4.807413e-02" style="stop-color:#EAEAEA"/>
	<stop  offset="0.1994" style="stop-color:#ADADAD"/>
	<stop  offset="0.3497" style="stop-color:#787878"/>
	<stop  offset="0.4953" style="stop-color:#4D4D4D"/>
	<stop  offset="0.6353" style="stop-color:#2B2B2B"/>
	<stop  offset="0.7683" style="stop-color:#131313"/>
	<stop  offset="0.8913" style="stop-color:#050505"/>
	<stop  offset="0.9948" style="stop-color:#000000"/>
</radialGradient>
<circle class="st0" cx="622" cy="349" r="234"/>
<g>
	<linearGradient id="SVGID_2_" gradientUnits="userSpaceOnUse" x1="446" y1="234.1524" x2="801.7503" y2="234.1524">
		<stop  offset="0" style="stop-color:#FFFFFF"/>
		<stop  offset="1" style="stop-color:#000000"/>
	</linearGradient>
	<polygon class="st1" points="446,243.3 801.8,243.3 801.8,225 446,225 	"/>
	<linearGradient id="SVGID_3_" gradientUnits="userSpaceOnUse" x1="475.3864" y1="441.383" x2="823.8246" y2="441.383">
		<stop  offset="0" style="stop-color:#FFFFFF"/>
		<stop  offset="1" style="stop-color:#000000"/>
	</linearGradient>
	<polygon class="st2" points="475.4,450.5 823.8,450.5 823.8,432.2 475.4,432.2 	"/>
	<linearGradient id="SVGID_4_" gradientUnits="userSpaceOnUse" x1="475.3864" y1="337.6408" x2="801.9948" y2="337.6408">
		<stop  offset="0" style="stop-color:#FFFFFF"/>
		<stop  offset="1" style="stop-color:#000000"/>
	</linearGradient>
	<polygon class="st3" points="512.3,432.2 802,243.3 766.5,243.1 475.4,432.2 	"/>
</g>
<linearGradient id="SVGID_5_" gradientUnits="userSpaceOnUse" x1="446" y1="475.8476" x2="801.7503" y2="475.8476">
	<stop  offset="0" style="stop-color:#00A99D"/>
	<stop  offset="1" style="stop-color:#000000"/>
</linearGradient>
<polygon class="st4" points="446,485 801.8,485 801.8,466.7 446,466.7 "/>
<linearGradient id="SVGID_6_" gradientUnits="userSpaceOnUse" x1="468.2497" y1="269.06" x2="824" y2="269.06">
	<stop  offset="0" style="stop-color:#00A99D"/>
	<stop  offset="1" style="stop-color:#000000"/>
</linearGradient>
<polygon class="st5" points="468.2,278.2 824,278.2 824,259.9 468.2,259.9 "/>
<linearGradient id="SVGID_7_" gradientUnits="userSpaceOnUse" x1="468.2497" y1="372.4089" x2="801.575" y2="372.4089">
	<stop  offset="0" style="stop-color:#00A99D"/>
	<stop  offset="1" style="stop-color:#000000"/>
</linearGradient>
<polygon class="st6" points="503.5,278.2 801.6,466.7 762.5,466.7 468.2,278.2 "/>
<polygon class="st7" points="612.8,351.1 606.3,351.1 603,356.7 606.3,362.2 612.8,362.2 616,356.7 "/>
</svg>
